<?xml version="1.0" encoding="UTF-8"?>
<svg width="16px" height="16px" viewBox="0 0 16 16" xmlns="http://www.w3.org/2000/svg" xmlns:xlink="http://www.w3.org/1999/xlink" version="1.1">
 <!-- Generated by Pixelmator Pro 2.0.6 -->
 <path id="Path" d="M14.643 3.037 C14.643 2.346 13.93 1.832 12.463 1.466 11.262 1.165 9.673 1 7.989 1 6.306 1 4.717 1.165 3.516 1.466 2.049 1.832 1.336 2.346 1.336 3.037 1.336 3.292 1.434 3.523 1.631 3.732 L6.159 9.224 6.159 14.481 C6.159 14.653 6.248 14.813 6.395 14.904 6.475 14.954 6.566 14.979 6.657 14.979 6.733 14.979 6.808 14.962 6.878 14.927 L9.537 13.609 C9.706 13.525 9.813 13.353 9.814 13.164 L9.819 9.224 14.348 3.731 C14.545 3.523 14.643 3.292 14.643 3.037 Z M3.982 2.378 C5.078 2.131 6.502 1.995 7.989 1.995 9.477 1.995 10.9 2.131 11.997 2.378 13.208 2.65 13.548 2.943 13.63 3.037 13.548 3.13 13.208 3.423 11.997 3.695 10.9 3.942 9.477 4.078 7.989 4.078 6.502 4.078 5.078 3.942 3.982 3.695 2.771 3.423 2.431 3.13 2.349 3.037 2.431 2.943 2.771 2.65 3.982 2.378 Z M8.938 8.729 C8.864 8.818 8.824 8.93 8.824 9.045 L8.819 12.854 7.155 13.679 7.155 9.045 C7.155 8.93 7.115 8.818 7.041 8.729 L3.674 4.645 C4.855 4.921 6.378 5.073 7.989 5.073 9.601 5.073 11.124 4.921 12.304 4.645 Z" fill="#009dde" fill-opacity="1" stroke="none"/>
 <g id="group"/>
 <g id="group-1"/>
 <g id="group-2"/>
 <g id="group-3"/>
 <g id="group-4"/>
 <g id="group-5"/>
 <g id="group-6"/>
 <g id="group-7"/>
 <g id="group-8"/>
 <g id="group-9"/>
 <g id="group-10"/>
 <g id="group-11"/>
 <g id="group-12"/>
 <g id="group-13"/>
 <g id="group-14"/>
</svg>
